<?xml version="1.0" encoding="UTF-8"?>
<!DOCTYPE svg PUBLIC "-//W3C//DTD SVG 1.1//EN" "http://www.w3.org/Graphics/SVG/1.1/DTD/svg11.dtd">
<!-- Creator: CorelDRAW 2020 (64 Bit) -->
<svg xmlns="http://www.w3.org/2000/svg" xml:space="preserve" width="100mm" height="100mm" version="1.1" style="shape-rendering:geometricPrecision; text-rendering:geometricPrecision; image-rendering:optimizeQuality; fill-rule:evenodd; clip-rule:evenodd"
viewBox="0 0 10000 10000"
 xmlns:xlink="http://www.w3.org/1999/xlink"
 xmlns:xodm="http://www.corel.com/coreldraw/odm/2003">
 <defs>
  <style type="text/css">
   <![CDATA[
    .fil0 {fill:#FEFEFE}
   ]]>
  </style>
 </defs>
 <g id="Camada_x0020_1">
  <metadata id="CorelCorpID_0Corel-Layer"/>
  <g id="_1583742617856">
   <path class="fil0" d="M7862.81 7019.9c344.52,-79.67 446.52,427.16 125.47,506.44 -341.49,84.33 -488.51,-422.49 -125.47,-506.44zm-3310.28 -2.49c341.44,-80.96 444.85,423.88 128.43,509.88 -343.87,93.45 -482.93,-425.81 -128.43,-509.88zm1118.97 -2352.2l1186.32 3.72 -61.05 778.5 -1066.75 -3.25 -58.52 -778.97zm1476.29 10.24c78.47,-25.16 1047.23,-13.11 1203.04,-8.77 -12.39,98.16 -84.32,299.01 -117.39,407.4 -28.33,92.86 -70.46,315.08 -153.52,351.41 -76.49,33.46 -869.4,30.36 -996.4,14.6l64.27 -764.64zm-1711.14 763.71c-173.62,2.26 -348.41,3.71 -522.03,4.29 -122.64,0.41 -405.97,29.1 -479.66,-42.04 -43.78,-42.26 -279.94,-639.39 -293.26,-736.31l1233.94 5.25 61.01 768.81zm1195.01 -1058.72c-126.44,-1.37 -253.5,-0.2 -380,-0.2 -295.28,0 -582.04,52.31 -618.94,-161.35 -28.93,-167.49 -52.9,-519.29 -51.32,-699.21l1360.78 0.51c9.44,123.23 -27.6,590.25 -46.92,726.81 -22.3,157.6 -114.61,135.07 -263.6,133.44zm604.99 -860.8l1477.09 0.65c-11.2,106.51 -98.84,354.75 -134.53,466.92 -166.39,522.95 -54.33,386.93 -1407.88,391.9l65.32 -859.47zm-2828.7 867.68c-398.99,0 -379.35,46.06 -498.69,-302.86l-214.89 -563.61c377.2,-5.1 1252.04,-14.55 1591.16,2.2l72.47 870.35 -950.05 -6.08zm-1717.49 -1843.09c75.71,87.35 325.71,810.91 382.71,955.58l986.16 2572.35c33.93,89.4 107.19,246.73 121.02,330.5 46.75,283.29 -441.58,281.28 -407.87,912.71 43.95,823.23 1117.81,1059.64 1527.95,426.04 166.12,-256.63 111.68,-426.39 152.55,-736.83l1640.87 3.07c15.46,186.62 -42.46,301.51 25.29,507.05 146.21,443.56 602.4,700.57 1056.14,555.2 575.3,-184.32 789.95,-914.2 332.56,-1392.84 -221.13,-231.4 -487.27,-240.14 -891,-240.14 -370.5,0 -741.39,-1.35 -1111.85,0.73 -195.07,1.09 -1514.41,24.62 -1647.6,-23.58 -146.38,-53 -173.69,-323.82 -163.12,-373.08 592.27,-7.59 1189.8,-2.84 1782.57,-3.08 581.61,-0.23 1211.22,20.26 1787.01,-3.19 336.25,-13.71 337.37,-217.61 424.05,-480.12 74.18,-224.71 142,-447.86 210.62,-675.75 135.54,-450.15 284.35,-904.66 418.94,-1352.85 74.38,-247.71 180.5,-513.41 -137.72,-585.51 -158.98,-36.02 -671.56,-12.69 -873.27,-12.69l-3560.74 1.16c-295.45,1.13 -591.23,2.14 -886.66,2.1 -450.75,-0.07 -392.02,1.88 -529.93,-364.98 -296.21,-787.95 -190.41,-661.67 -1130.81,-661.75 -280.49,-0.02 -597.58,1.58 -526.34,348.84 54.43,265.33 393.9,230.64 667.36,221.94 161.86,-5.15 258.62,-37.57 351.11,69.12z"/>
   <path class="fil0" d="M763.64 3537.68c-151.15,36.47 -225.39,223.48 -113.22,356.96 92.36,109.91 352.76,72.5 520.5,72.5 207.48,0 1021.67,27.32 1161.65,-7.81 152.82,-38.36 214.95,-231.73 104.06,-359.01 -94.67,-108.68 -348.36,-71.08 -519.78,-71.08 -218.22,0 -1001.47,-28.17 -1153.21,8.44z"/>
   <path class="fil0" d="M1960.05 5479.71c-157.07,37.97 -234.63,227.04 -114.18,357.96 100.48,109.19 325.94,74.27 507.27,74.27 165.98,0 1082.44,11.88 1164.98,-7.74 146.45,-34.81 234,-228.53 103.11,-364.36 -100.27,-104.05 -340.79,-67.85 -508.09,-67.85 -215.59,0 -1006.12,-27.81 -1153.09,7.72z"/>
   <path class="fil0" d="M1438.33 4941.05l1407.4 -0.07c291.41,0 314.58,-352.13 99.09,-426.34 -59.6,-20.53 -1522.2,-23.78 -1595.85,-3.64 -225.02,61.53 -214.1,430.06 89.36,430.05z"/>
  </g>
 </g>
</svg>
