<?xml version="1.0" encoding="UTF-8"?>
<!DOCTYPE svg PUBLIC "-//W3C//DTD SVG 1.1//EN" "http://www.w3.org/Graphics/SVG/1.1/DTD/svg11.dtd">
<!-- Creator: CorelDRAW 2020 (64 Bit) -->
<svg xmlns="http://www.w3.org/2000/svg" xml:space="preserve" width="200mm" height="200mm" version="1.1" style="shape-rendering:geometricPrecision; text-rendering:geometricPrecision; image-rendering:optimizeQuality; fill-rule:evenodd; clip-rule:evenodd"
viewBox="0 0 20000 20000"
 xmlns:xlink="http://www.w3.org/1999/xlink"
 xmlns:xodm="http://www.corel.com/coreldraw/odm/2003">
 <defs>
  <style type="text/css">
   <![CDATA[
    .fil0 {fill:#B42117}
    .fil1 {fill:#FEFEFE;fill-rule:nonzero}
    .fil2 {fill:#B42117;fill-rule:nonzero}
   ]]>
  </style>
 </defs>
 <g id="Camada_x0020_1">
  <metadata id="CorelCorpID_0Corel-Layer"/>
  <rect class="fil0" x="902.1" y="909.76" width="18181.55" height="18181.54" rx="852.09" ry="2811.52"/>
  <path class="fil1" d="M13984.23 9323.77l-3925.07 -2156.37 -66.32 -36.33 -66.31 36.33 -3925.07 2156.37c28.04,-283 84.79,-556.49 168.32,-818.44 416.21,-1311.76 1488.95,-2331.6 2832.57,-2672.63 316.73,-80.94 648.83,-123.6 990.49,-123.6 341.68,0 673.69,42.66 990.49,123.6 1343.64,341.03 2416.37,1360.2 2832.59,2671.99 83.53,261.94 140.28,536.08 168.31,819.08z"/>
  <path class="fil1" d="M14277.37 9775.65l-275.36 -151.73 -4009.18 -2202.12 -4009.14 2202.12 -275.36 151.73 0 309.18c0,0 98.75,2565.48 2012.84,4721.11 -35.68,-22.34 -1189.38,-743.17 -2012.84,-2339.24l0 788.44c766.74,2793.73 2762.42,3707.73 2762.42,3707.73l0 -4078c-1381.82,0 -1688.46,-699.26 -1538.02,-1732.42 2228.27,906.35 2228.27,906.35 2228.27,906.35l0.65 1858 831.18 623.95 831.2 -623.95 0.57 -1858c0,0 0,0 1088.11,-442.36l-91.86 -1218.06 381.17 1100.13c239.69,-97.52 520.74,-211.56 850.95,-346.06 106.39,728.54 -14.7,1290.68 -580.04,1559.05l28.04 1228.87 -377.37 -1113.54c-174.56,38.27 -376.7,58.04 -608.65,58.04l0 4078c0,0 1995.68,-914 2762.42,-3707.73l0 -788.44c-823.46,1596.07 -1977.16,2316.9 -2012.84,2339.24 1914.67,-2155.63 2012.84,-4721.11 2012.84,-4721.11l0 -309.18z"/>
  <path class="fil1" d="M13815.92 8504.69l-2960.66 -1626.63 128.07 -1045.39 447.49 -1177.42 -384.32 -432.77 -462.13 798.21 0 -1317.08 -591.51 -665.42 -591.53 665.42 0 1794.91 -402.78 -1342.39 -443.72 499.12 447.5 1177.42 128.11 1045.39 -2960.66 1627.25 -460.81 253.03 -0.65 0c0,0 0,290.7 0,726.7l293.14 -161.27 3925.07 -2156.37 66.33 -36.31 66.3 36.31 3925.07 2156.37 293.14 161.27 0 -726.7 -461.45 -253.65z"/>
  <polygon class="fil1" points="10645.56,9531.99 9992.93,8496.88 9340.3,9531.99 9992.93,10567.01 "/>
  <path class="fil2" d="M9820.04 10292.84l0 3197.84c0,95.41 77.38,172.86 172.88,172.86l0 0c95.49,0 172.88,-77.45 172.88,-172.86l0 -3197.84 479.75 -760.84 -652.63 -1035.11 -652.63 1035.11 479.75 760.84z"/>
  <polygon class="fil1" points="10240.15,9531.99 9992.93,9139.76 9745.61,9531.99 9992.93,9924.13 "/>
 </g>
</svg>
