<?xml version="1.0" encoding="UTF-8"?>
<!DOCTYPE svg PUBLIC "-//W3C//DTD SVG 1.1//EN" "http://www.w3.org/Graphics/SVG/1.1/DTD/svg11.dtd">
<!-- Creator: CorelDRAW 2020 (64 Bit) -->
<svg xmlns="http://www.w3.org/2000/svg" xml:space="preserve" width="25.3998mm" height="25.3998mm" version="1.1" style="shape-rendering:geometricPrecision; text-rendering:geometricPrecision; image-rendering:optimizeQuality; fill-rule:evenodd; clip-rule:evenodd"
viewBox="0 0 2539.98 2539.98"
 xmlns:xlink="http://www.w3.org/1999/xlink"
 xmlns:xodm="http://www.corel.com/coreldraw/odm/2003">
 <defs>
  <style type="text/css">
   <![CDATA[
    .fil0 {fill:#B42117}
    .fil4 {fill:#FEFEFE;fill-rule:nonzero}
    .fil2 {fill:#FEFEFE;fill-rule:nonzero}
    .fil1 {fill:#A9ABAE;fill-rule:nonzero}
    .fil3 {fill:#489BD4;fill-rule:nonzero}
   ]]>
  </style>
 </defs>
 <g id="Camada_x0020_1">
  <metadata id="CorelCorpID_0Corel-Layer"/>
  <rect class="fil0" x="-0.02" y="-0.01" width="2539.99" height="2539.99" rx="519.25" ry="519.25"/>
  <g id="_1803645699936">
   <path class="fil1" d="M1799.22 1343.86l-520.44 -285.92 -8.79 -4.82 -8.79 4.82 -520.44 285.92c3.71,-37.52 11.24,-73.78 22.31,-108.52 55.19,-173.93 197.43,-309.15 375.59,-354.37 41.99,-10.73 86.03,-16.39 131.33,-16.39 45.3,0 89.33,5.66 131.33,16.39 178.16,45.22 320.4,180.35 375.58,354.29 11.08,34.73 18.61,71.08 22.32,108.6z"/>
   <path class="fil2" d="M1838.09 1403.78l-36.51 -20.12 -531.59 -291.99 -531.59 291.99 -36.51 20.12 0 40.99c0,0 13.09,340.17 266.89,626 -4.73,-2.97 -157.7,-98.54 -266.89,-310.17l0 104.54c101.66,370.43 366.28,491.62 366.28,491.62l0 -540.72c-183.22,0 -223.88,-92.72 -203.93,-229.71 295.45,120.18 295.45,120.18 295.45,120.18l0.09 246.36 110.21 82.73 110.21 -82.73 0.08 -246.36c0,0 0,0 144.27,-58.65l-12.18 -161.51 50.54 145.87c31.78,-12.93 69.05,-28.05 112.83,-45.89 14.11,96.6 -1.95,171.14 -76.91,206.73l3.72 162.94 -50.04 -147.65c-23.14,5.07 -49.94,7.69 -80.7,7.69l0 540.72c0,0 264.62,-121.19 366.28,-491.62l0 -104.54c-109.19,211.63 -262.16,307.2 -266.89,310.17 253.87,-285.83 266.89,-626 266.89,-626l0 -40.99z"/>
   <path class="fil2" d="M1776.9 1235.26l-392.56 -215.68 16.98 -138.61 59.34 -483.34 -50.96 -57.38 -61.28 433.05 0 -501.85 -78.43 -88.23 -78.43 88.23 0 238 -53.41 -177.99 -58.83 66.17 59.34 483.34 16.98 138.61 -392.57 215.76 -61.1 33.55 -0.08 0c0,0 0,38.55 0,96.35l38.87 -21.38 520.44 -285.92 8.79 -4.82 8.79 4.82 520.44 285.92 38.87 21.38 0 -96.35 -61.19 -33.63z"/>
   <polygon class="fil3" points="1356.54,1371.47 1270,1234.22 1183.47,1371.47 1270,1508.71 "/>
   <path class="fil1" d="M1247.08 1472.36l0 424.01c0,12.65 10.26,22.92 22.92,22.92l0 0c12.66,0 22.92,-10.27 22.92,-22.92l0 -424.01 63.61 -100.89 -86.53 -137.25 -86.54 137.25 63.62 100.89z"/>
   <polygon class="fil4" points="1302.78,1371.47 1270,1319.46 1237.21,1371.47 1270,1423.47 "/>
  </g>
 </g>
</svg>
